<?xml version="1.0" encoding="UTF-8" standalone="no"?>
<!-- Created with Inkscape (http://www.inkscape.org/) -->

<svg
   width="48mm"
   height="48mm"
   viewBox="0 0 48 48"
   version="1.1"
   id="svg1"
   xml:space="preserve"
   inkscape:version="1.4 (86a8ad7, 2024-10-11)"
   sodipodi:docname="logo.svg"
   xmlns:inkscape="http://www.inkscape.org/namespaces/inkscape"
   xmlns:sodipodi="http://sodipodi.sourceforge.net/DTD/sodipodi-0.dtd"
   xmlns="http://www.w3.org/2000/svg"
   xmlns:svg="http://www.w3.org/2000/svg"><sodipodi:namedview
     id="namedview1"
     pagecolor="#ffffff"
     bordercolor="#000000"
     borderopacity="0.25"
     inkscape:showpageshadow="2"
     inkscape:pageopacity="0.0"
     inkscape:pagecheckerboard="0"
     inkscape:deskcolor="#d1d1d1"
     inkscape:document-units="mm"
     inkscape:zoom="2.011546"
     inkscape:cx="67.609689"
     inkscape:cy="232.90544"
     inkscape:window-width="2256"
     inkscape:window-height="1410"
     inkscape:window-x="-11"
     inkscape:window-y="-11"
     inkscape:window-maximized="1"
     inkscape:current-layer="layer2" /><defs
     id="defs1" /><g
     inkscape:label="Слой 1"
     inkscape:groupmode="layer"
     id="layer1" /><g
     inkscape:groupmode="layer"
     id="layer2"
     inkscape:label="Слой 2"><g
       id="g3"
       transform="matrix(1.1183967,0,0,1.1183967,-22.168466,-96.186193)"><g
         style="fill:#7b00a9;fill-opacity:1;stroke:#440058;stroke-width:2;stroke-linecap:round;stroke-linejoin:round;stroke-opacity:1"
         id="g2"
         transform="matrix(1.8703739,0,0,1.8703739,17.13525,83.148075)"><path
           d="m 6,4 h 11 a 2,2 0 0 1 2,2 v 12 a 2,2 0 0 1 -2,2 H 6 A 1,1 0 0 1 5,19 V 5 A 1,1 0 0 1 6,4 m 3,0 v 18"
           id="path2-9"
           style="fill:#7b00a9;fill-opacity:1;stroke:#440058;stroke-opacity:1" /><path
           d="m 13,8 h 2"
           id="path3-4"
           style="fill:#7b00a9;fill-opacity:1;stroke:#440058;stroke-opacity:1" /><path
           d="m 13,12 h 2"
           id="path4"
           style="fill:#7b00a9;fill-opacity:1;stroke:#440058;stroke-opacity:1" /></g><g
         style="fill:#832da3;fill-opacity:1;stroke:#580070;stroke-width:2.36963;stroke-linecap:round;stroke-linejoin:round;stroke-dasharray:none;stroke-opacity:1"
         id="g1"
         transform="matrix(1.0811799,0,0,1.0811799,35.712035,95.648879)"><path
           d="M 4,20 H 8 L 18.5,9.5 a 2.8284271,2.8284271 0 1 0 -4,-4 L 4,16 v 4"
           id="path2"
           style="fill:#832da3;fill-opacity:1;stroke:#580070;stroke-width:2.36963;stroke-dasharray:none;stroke-opacity:1" /><path
           d="m 13.5,6.5 4,4"
           id="path3"
           style="fill:#832da3;fill-opacity:1;stroke:#580070;stroke-width:2.36963;stroke-dasharray:none;stroke-opacity:1" /></g></g></g></svg>
